<svg xmlns="http://www.w3.org/2000/svg" width="30" height="20" viewBox="0 0 30 20">
  <metadata><?xpacket begin="﻿" id="W5M0MpCehiHzreSzNTczkc9d"?>
<x:xmpmeta xmlns:x="adobe:ns:meta/" x:xmptk="Adobe XMP Core 5.6-c138 79.159824, 2016/09/14-01:09:01        ">
   <rdf:RDF xmlns:rdf="http://www.w3.org/1999/02/22-rdf-syntax-ns#">
      <rdf:Description rdf:about=""/>
   </rdf:RDF>
</x:xmpmeta>
                                                                                                    
                                                                                                    
                                                                                                    
                                                                                                    
                                                                                                    
                                                                                                    
                                                                                                    
                                                                                                    
                                                                                                    
                                                                                                    
                                                                                                    
                                                                                                    
                                                                                                    
                                                                                                    
                                                                                                    
                                                                                                    
                                                                                                    
                                                                                                    
                                                                                                    
                                                                                                    
                           
<?xpacket end="w"?></metadata>
<defs>
    <style>
      .cls-1 {
        fill: #d78034;
        fill-rule: evenodd;
      }
    </style>
  </defs>
  <path id="e-mail" class="cls-1" d="M3.124,20H26.873A3.13,3.13,0,0,0,30,16.874V3.124A3.129,3.129,0,0,0,26.873,0H3.124A3.128,3.128,0,0,0,0,3.124v13.75A3.129,3.129,0,0,0,3.124,20ZM27.089,1A1.921,1.921,0,0,1,29,2.928V17.071A1.922,1.922,0,0,1,27.089,19H2.907A1.922,1.922,0,0,1,1,17.071V2.928A1.921,1.921,0,0,1,2.907,1H27.089ZM15,10.989a3.2,3.2,0,0,0,1.9-.632l8.842-6.188a0.668,0.668,0,0,0,.156-0.89,0.577,0.577,0,0,0-.833-0.168L16.218,9.3a2.035,2.035,0,0,1-2.44,0L4.937,3.111a0.578,0.578,0,0,0-.834.168,0.667,0.667,0,0,0,.157.89L13.1,10.358A3.209,3.209,0,0,0,15,10.989ZM25.354,17a0.635,0.635,0,0,0,.5-0.239,0.684,0.684,0,0,0-.083-0.939l-5.713-4.667a0.629,0.629,0,0,0-.907.085,0.685,0.685,0,0,0,.082.939l5.714,4.666A0.625,0.625,0,0,0,25.354,17ZM4.642,17a0.624,0.624,0,0,0,.411-0.155l5.714-4.666a0.684,0.684,0,0,0,.083-0.939,0.628,0.628,0,0,0-.906-0.085L4.23,15.821a0.684,0.684,0,0,0-.083.939A0.636,0.636,0,0,0,4.642,17Z"/>
</svg>
