<svg xmlns="http://www.w3.org/2000/svg" width="22" height="22" viewBox="0 0 22 22">
  <metadata><?xpacket begin="﻿" id="W5M0MpCehiHzreSzNTczkc9d"?>
<x:xmpmeta xmlns:x="adobe:ns:meta/" x:xmptk="Adobe XMP Core 5.6-c138 79.159824, 2016/09/14-01:09:01        ">
   <rdf:RDF xmlns:rdf="http://www.w3.org/1999/02/22-rdf-syntax-ns#">
      <rdf:Description rdf:about=""/>
   </rdf:RDF>
</x:xmpmeta>
                                                                                                    
                                                                                                    
                                                                                                    
                                                                                                    
                                                                                                    
                                                                                                    
                                                                                                    
                                                                                                    
                                                                                                    
                                                                                                    
                                                                                                    
                                                                                                    
                                                                                                    
                                                                                                    
                                                                                                    
                                                                                                    
                                                                                                    
                                                                                                    
                                                                                                    
                                                                                                    
                           
<?xpacket end="w"?></metadata>
<defs>
    <style>
      .cls-1 {
        fill: #d78034;
        fill-rule: evenodd;
      }
    </style>
  </defs>
  <path id="phone" class="cls-1" d="M20.262,22A20.286,20.286,0,0,1,0,1.736,1.739,1.739,0,0,1,1.735,0H5.788A1.74,1.74,0,0,1,7.525,1.736a12.582,12.582,0,0,0,.631,3.953A1.748,1.748,0,0,1,7.725,7.46L5.89,9.9a13.949,13.949,0,0,0,6.21,6.208l2.5-1.887a1.691,1.691,0,0,1,1.717-.362,12.568,12.568,0,0,0,3.946.628A1.739,1.739,0,0,1,22,16.222v4.041A1.739,1.739,0,0,1,20.262,22ZM1.735,1.157a0.58,0.58,0,0,0-.578.579,19.127,19.127,0,0,0,19.1,19.105,0.58,0.58,0,0,0,.579-0.579V16.222a0.58,0.58,0,0,0-.579-0.58,13.76,13.76,0,0,1-4.315-.688,0.583,0.583,0,0,0-.59.136l-2.85,2.162a0.586,0.586,0,0,1-.614.053,15.2,15.2,0,0,1-7.2-7.2,0.581,0.581,0,0,1,.055-0.612L6.854,6.7a0.634,0.634,0,0,0,.2-0.657,13.749,13.749,0,0,1-.687-4.308,0.58,0.58,0,0,0-.579-0.579H1.735Z"/>
</svg>
